<svg xmlns="http://www.w3.org/2000/svg" width="14.342" height="16.467" viewBox="0 0 14.342 16.467"><defs><style>.a{fill:#0d1331;}</style></defs><g transform="translate(-5 -1)"><path class="a" d="M18.014,2.062H12.968V1.8a.8.8,0,1,0-1.594,0v.266H6.328A1.33,1.33,0,0,0,5,3.39v7.437a.266.266,0,0,0,.266.266h2.39v.266a.8.8,0,0,0,.8.8h.139L6.612,17.1a.266.266,0,0,0,.247.364H7.922a.266.266,0,0,0,.247-.167l2.058-5.145h4.156L16.44,17.3a.266.266,0,0,0,.247.167h1.062A.266.266,0,0,0,18,17.1l-1.984-4.96a.8.8,0,0,0,.675-.785v-.266h2.39a.266.266,0,0,0,.266-.266V3.39a1.33,1.33,0,0,0-1.328-1.328ZM11.906,1.8a.266.266,0,0,1,.531,0v.266h-.531ZM7.742,16.936h-.49l1.912-4.781h.49Zm9.124,0-1.912-4.781h.49l1.912,4.781Zm-.711-5.578a.266.266,0,0,1-.266.266H8.453a.266.266,0,0,1-.266-.266v-.266h7.968Zm2.656-.8H5.531V3.39a.8.8,0,0,1,.8-.8H18.014a.8.8,0,0,1,.8.8Z" transform="translate(0 0)"/><path class="a" d="M42.656,33h-2.39a.266.266,0,0,0,0,.531h2.39a.266.266,0,0,0,0-.531Z" transform="translate(-25.704 -23.501)"/><path class="a" d="M52.8,33h-.531a.266.266,0,1,0,0,.531H52.8a.266.266,0,0,0,0-.531Z" transform="translate(-34.517 -23.501)"/><path class="a" d="M20.289,15.02a.263.263,0,0,0-.1-.02H17.266a.267.267,0,0,0-.266.266v2.922a.266.266,0,0,0,.266.266h2.922a.267.267,0,0,0,.266-.266V15.266a.267.267,0,0,0-.164-.245Zm-2.757.886.82.82-.82.82Zm.376-.376h1.639l-.82.82Zm.82,1.571.82.82H17.907Zm.376-.376.82-.82v1.639Z" transform="translate(-8.813 -10.282)"/><path class="a" d="M32.266,15.531h.266a.266.266,0,1,0,0-.531h-.266a.266.266,0,1,0,0,.531Z" transform="translate(-19.829 -10.282)"/><path class="a" d="M36.266,15.531h2.39a.266.266,0,1,0,0-.531h-2.39a.266.266,0,1,0,0,.531Z" transform="translate(-22.766 -10.282)"/><path class="a" d="M44.531,24h-.266a.266.266,0,1,0,0,.531h.266a.266.266,0,1,0,0-.531Z" transform="translate(-28.642 -16.891)"/><path class="a" d="M34.922,24.266A.266.266,0,0,0,34.656,24h-2.39a.266.266,0,1,0,0,.531h2.39A.266.266,0,0,0,34.922,24.266Z" transform="translate(-19.829 -16.891)"/><path class="a" d="M32.266,21.531h3.453a.266.266,0,1,0,0-.531H32.266a.266.266,0,1,0,0,.531Z" transform="translate(-19.829 -14.688)"/><path class="a" d="M32.266,18.531h3.453a.266.266,0,1,0,0-.531H32.266a.266.266,0,1,0,0,.531Z" transform="translate(-19.829 -12.485)"/></g></svg>