<svg xmlns="http://www.w3.org/2000/svg" width="24" height="22.347" viewBox="0 0 24 22.347"><g transform="translate(0 0)"><g transform="translate(13.631 11.978)"><path d="M352.765,326.519a5.184,5.184,0,1,0,5.184,5.185A5.186,5.186,0,0,0,352.765,326.519Zm.333,9.018v-.448a.333.333,0,1,0-.667,0v.448a3.852,3.852,0,0,1-3.5-3.5h.449a.333.333,0,0,0,0-.667h-.449a3.852,3.852,0,0,1,3.5-3.5v.448a.333.333,0,1,0,.667,0v-.448a3.85,3.85,0,0,1,3.5,3.5h-.449a.333.333,0,1,0,0,.667h.449A3.851,3.851,0,0,1,353.1,335.537Z" transform="translate(-347.58 -326.519)"/></g><g transform="translate(16.797 14.526)"><path d="M432.271,393.632h-1.2a.887.887,0,0,0-.729-.385h-.015l-1.1-1.543a.5.5,0,1,0-.815.581l1.1,1.544a.9.9,0,0,0-.055.3.885.885,0,0,0,1.614.5h1.2a.5.5,0,0,0,0-1Z" transform="translate(-428.32 -391.496)"/></g><g transform="translate(3.349)"><path d="M87.053,27.923a1.641,1.641,0,0,0,1.642-1.641V22.72a1.641,1.641,0,1,0-3.282,0v3.562A1.64,1.64,0,0,0,87.053,27.923Z" transform="translate(-85.412 -21.079)"/></g><g transform="translate(13.402)"><path d="M343.386,27.923a1.641,1.641,0,0,0,1.642-1.641V22.72a1.641,1.641,0,1,0-3.282,0v3.562A1.641,1.641,0,0,0,343.386,27.923Z" transform="translate(-341.746 -21.079)"/></g><g transform="translate(3.944 10.552)"><path d="M103.833,291.015a.847.847,0,0,0-.848-.848h-1.573a.849.849,0,0,0-.849.848v1.572a.85.85,0,0,0,.849.85h1.573a.849.849,0,0,0,.848-.85Z" transform="translate(-100.563 -290.167)"/></g><g transform="translate(8.383 10.554)"><path d="M217.046,291.051a.848.848,0,0,0-.847-.848h-1.573a.847.847,0,0,0-.848.848v1.572a.848.848,0,0,0,.848.848H216.2a.848.848,0,0,0,.847-.848Z" transform="translate(-213.777 -290.203)"/></g><g transform="translate(12.819 10.552)"><path d="M327.743,290.167a.848.848,0,0,0-.849.848v1.572a.837.837,0,0,0,.722.823,6.3,6.3,0,0,1,2.546-2.261v-.134a.848.848,0,0,0-.848-.848Z" transform="translate(-326.894 -290.167)"/></g><g transform="translate(3.944 14.814)"><path d="M101.42,398.833a.848.848,0,0,0-.849.848v1.573a.848.848,0,0,0,.849.848h1.573a.847.847,0,0,0,.847-.848v-1.573a.847.847,0,0,0-.847-.848Z" transform="translate(-100.571 -398.833)"/></g><g transform="translate(8.383 14.815)"><path d="M216.189,398.851h-1.572a.848.848,0,0,0-.848.848v1.571a.847.847,0,0,0,.848.848h1.572a.848.848,0,0,0,.848-.848V399.7A.848.848,0,0,0,216.189,398.851Z" transform="translate(-213.769 -398.851)"/></g><g transform="translate(0 3.181)"><path d="M13.1,118.729H5.117a2.494,2.494,0,0,1-2.491-2.49v-8.334H17.408v2.181a6.118,6.118,0,0,1,2.625-.044V102.2H17.669v2.021a2.626,2.626,0,0,1-5.252,0V102.2h-4.8v2.021a2.626,2.626,0,0,1-5.252,0V102.2H0v14.035a5.117,5.117,0,0,0,5.117,5.117h9.8c.116,0,.231-.01.345-.017A6.3,6.3,0,0,1,13.1,118.729Z" transform="translate(0 -102.204)"/></g></g></svg>