<svg xmlns="http://www.w3.org/2000/svg" width="16.646" height="30.731" viewBox="0 0 16.646 30.731"><path d="M125.656,0a8.319,8.319,0,0,0-4.482,15.329v.676a.64.64,0,0,0,.64.64h.64V18.3l-1.094,1.094a.641.641,0,0,0,0,.905l1.094,1.092v.75l-1.094,1.094a.641.641,0,0,0,0,.905l1.094,1.092v2.3a.645.645,0,0,0,.187.453l2.561,2.561a.643.643,0,0,0,.907,0l2.561-2.561a.645.645,0,0,0,.187-.453V16.646h.64a.64.64,0,0,0,.64-.64v-.676A8.319,8.319,0,0,0,125.656,0Zm.64,26.249a.64.64,0,1,1-1.28,0V17.286a.64.64,0,1,1,1.28,0Zm-.64-17.286a3.2,3.2,0,1,1,3.2-3.2A3.206,3.206,0,0,1,125.656,8.963Z" transform="translate(-117.333)"/></svg>