<?xml version="1.0" encoding="utf-8"?>
<!-- Generator: Adobe Illustrator 23.0.1, SVG Export Plug-In . SVG Version: 6.00 Build 0)  -->
<svg version="1.1" id="Layer_1" xmlns="http://www.w3.org/2000/svg" xmlns:xlink="http://www.w3.org/1999/xlink" x="0px" y="0px"
	 viewBox="0 0 91.3 122.8" style="enable-background:new 0 0 91.3 122.8;" xml:space="preserve">
<style type="text/css">
	.st0{fill:#221F1F;}
	.st1{fill:#C22126;}
	.st2{fill-rule:evenodd;clip-rule:evenodd;fill:#C0242B;}
	.st3{fill-rule:evenodd;clip-rule:evenodd;fill:#C9242C;}
	.st4{fill-rule:evenodd;clip-rule:evenodd;fill:#FFFFFE;}
	.st5{fill:none;}
	.st6{fill-rule:evenodd;clip-rule:evenodd;fill:url(#Fill-12_2_);}
	.st7{clip-path:url(#SVGID_3_);}
	.st8{clip-path:url(#SVGID_4_);fill:none;}
	.st9{fill-rule:evenodd;clip-rule:evenodd;fill:url(#Fill-12_3_);}
	.st10{clip-path:url(#SVGID_7_);}
	.st11{clip-path:url(#SVGID_8_);fill:none;}
</style>
<g id="icon_1_" transform="translate(6.496552, 3.500000)">
	<g id="Group-3_1_" transform="translate(0.000000, 84.000000)">
		<path id="Fill-1_1_" class="st2" d="M71.3-43.6c-10.6-4.9-23-1.4-29.6,7.8c9.7-0.8,17.6,1.5,17.9,4.1l-0.9,8.9h-0.1
			c0-0.2,0-0.4,0-0.5c-0.5-3.4-8.5-5.2-17.9-4s-16.7,5-16.3,8.5c0,0.2,0.1,0.3,0.1,0.5h-0.2l-3.1-8.4c-0.3-2.6,6.7-6.9,16.2-8.6
			c-6.5-9.6-19.2-13.4-30-8.3c-12.8,6-19,21.2-8.8,39.2C5.8,8.4,17.1,18,39.4,35.3c1.7-1.4,3.4-2.7,5-3.9
			C39.5,2.3,32.6-17.9,32.6-17.9l0,0c-0.2-1.8,3.7-3.9,8.7-4.5c5.1-0.7,9.4,0.3,9.6,2.1c0,0-1.7,16.8,0.6,46.1
			C66,14,74.4,5.8,80.2-4.4C90.3-22.4,84.2-37.6,71.3-43.6"/>
	</g>
	<path id="Fill-6_1_" class="st2" d="M51.3,23.5c-3.9,2.4-7.1,8.1-5.6,13.8c5.3-7.8,21.5-0.8,26.9-18.8c-3.6,2.9-8.3,3.7-10.6,3.4
		c8.8-3.6,13.9-16.6,6-25.5C70.3,6.8,57,7.7,46.6,9.7c-19.7,3.8-22.9,21.9-13.9,31.2C31.6,29.9,40.4,23.4,51.3,23.5"/>
	<path id="Fill-7_1_" class="st4" d="M39.4,48.7c-10.6,1.4-18.7,6.2-18.3,9l3.1,8.4h0.2c-0.1-0.2-0.1-0.3-0.1-0.5
		c-0.5-3.4,6.8-7.2,16.3-8.5c9.4-1.2,17.5,0.5,17.9,4c0,0.2,0,0.4,0,0.5h0.1l0.9-8.9C59,49.8,50,47.3,39.4,48.7"/>
	<path id="Fill-8_1_" class="st4" d="M51.5,110.2C49.2,80.9,50.9,64,50.9,64c-0.2-1.8-4.6-2.8-9.7-2.1s-9.1,2.7-8.8,4.6l0,0
		c0,0,7,20.3,12,49.5C46.9,113.9,49.3,112,51.5,110.2"/>
	<g id="Group-11_1_" transform="translate(116.000000, 112.000000)">
		<path id="Fill-9_1_" class="st5" d="M-64.5-1.7L-64.5-1.7c-0.3-3.2-0.5-6.3-0.6-9.1C-65-8-64.8-4.9-64.5-1.7
			c11.9-9.6,19.6-16.9,25.2-24.9C-44.9-18.6-52.7-11.3-64.5-1.7 M-64.5-1.7L-64.5-1.7L-64.5-1.7 M-65.1-10.8
			C-65.2-10.9-65.2-10.9-65.1-10.8C-65.2-10.9-65.2-10.9-65.1-10.8 M-65.2-10.9L-65.2-10.9L-65.2-10.9 M-56.5-59.3
			c0-0.2-0.1-0.3-0.2-0.5C-56.5-59.6-56.5-59.5-56.5-59.3"/>
	</g>
	<g id="shadow_1_" transform="translate(115.000000, 112.000000)">
		
			<linearGradient id="Fill-12_2_" gradientUnits="userSpaceOnUse" x1="-60.0888" y1="-383.9243" x2="-60.5489" y2="-383.9243" gradientTransform="matrix(64.8809 0 0 117.756 3864.3511 45178.7422)">
			<stop  offset="0" style="stop-color:#C0242B"/>
			<stop  offset="0.9717" style="stop-color:#850303"/>
		</linearGradient>
		<path id="Fill-12_1_" class="st6" d="M-63.5-1.7c-0.3-3.2-0.5-6.2-0.6-9.1l0,0l0,0l0,0l0,0c-0.9-16.5-0.5-28-0.2-33.4
			c4.6-1.6,7.7-3.9,7.9-6h0.1l0.9-8.9c0-0.2-0.1-0.3-0.2-0.5L-32.8-36c-0.6,1.4-1.3,2.8-2.1,4.2c-1,1.8-2.1,3.6-3.4,5.4
			C-43.9-18.6-51.7-11.3-63.5-1.7"/>
	</g>
	<g id="Group-20_1_" transform="translate(134.000000, 112.000000)">
		<path id="Fill-18_1_" class="st5" d="M-74.3-59.2c0-0.2-0.1-0.3-0.2-0.5l0,0C-74.4-59.6-74.3-59.4-74.3-59.2"/>
	</g>
	<g id="Group-23_1_" transform="translate(117.000000, 230.000000)">
		<g>
			<defs>
				<polygon id="SVGID_5_" points="0.9,1 1.9,1 0.9,2 				"/>
			</defs>
			<defs>
				<polygon id="SVGID_6_" points="-1.1,-1 -2.1,-1 -1.1,-2 				"/>
			</defs>
			<clipPath id="SVGID_3_">
				<use xlink:href="#SVGID_5_"  style="overflow:visible;"/>
			</clipPath>
			<clipPath id="SVGID_4_" class="st7">
				<use xlink:href="#SVGID_6_"  style="overflow:visible;"/>
			</clipPath>
		</g>
	</g>
</g>
</svg>
